<?xml version="1.0" encoding="UTF-8" standalone="no"?>
<svg xmlns="http://www.w3.org/2000/svg" width="40" height="50">
<g>
    <g>
        <rect id="rect3129" height="3" width="17" y="38.900002" x="6" style="fill:#818185"/>
        <polygon id="polygon3131" points="26,30.9 26,44.9 3,44.9 3,30.9 0,30.9 0,47.9 0,47.9 29,47.9 29,30.9 " style="fill:#818185"/>
        <rect id="rect3133" height="3" width="16.799999" transform="matrix(0.9958,0.09192543,-0.09192543,0.9958,3.2793,-1.193)" y="33.5" x="6.1999998" style="fill:#a68a6e"/>
        <polygon id="polygon3135" points="6.9,28.9 7.6,25.9 23.9,30 23.2,32.9 " style="fill:#bf9452"/>
        <polygon id="polygon3137" points="9.6,20.7 11,18.2 25.6,25.7 24.3,28.2 " style="fill:#d28b29"/>
        <polygon id="polygon3139" points="13.7,13.9 15.7,11.7 28.7,22.4 26.7,24.7 " style="fill:#f68a1f"/>
        <polygon id="polygon3141" points="20.1,7.6 22.5,6 32.1,19.4 29.6,21 " style="fill:#f47920"/>
    </g>
</g>
</svg>
